<mxfile host="app.diagrams.net" modified="2021-09-21T01:54:05.254Z" agent="5.0 (Macintosh; Intel Mac OS X 10_15_7) AppleWebKit/537.36 (KHTML, like Gecko) Chrome/93.0.4577.82 Safari/537.36" etag="p90j6l6eiltAwJtZk3lH" version="15.2.9" type="github">
  <diagram id="xhlbJoAwBv28QrkWj6UR" name="Page-1">
    <mxGraphModel dx="1425" dy="801" grid="1" gridSize="10" guides="1" tooltips="1" connect="1" arrows="1" fold="1" page="1" pageScale="1" pageWidth="850" pageHeight="1100" math="0" shadow="0">
      <root>
        <mxCell id="0" />
        <mxCell id="1" parent="0" />
        <mxCell id="EfbXVXWpIgYlTS-Qm1sO-102" value="" style="endArrow=none;html=1;entryX=0;entryY=0.5;entryDx=0;entryDy=0;exitX=1;exitY=0.5;exitDx=0;exitDy=0;fillColor=#e1d5e7;strokeColor=#9673a6;" edge="1" parent="1" source="vNrutqDuaZT0YzVRxxDl-3" target="vNrutqDuaZT0YzVRxxDl-7">
          <mxGeometry width="50" height="50" relative="1" as="geometry">
            <mxPoint x="420" y="240" as="sourcePoint" />
            <mxPoint x="470" y="190" as="targetPoint" />
          </mxGeometry>
        </mxCell>
        <mxCell id="vNrutqDuaZT0YzVRxxDl-1" value="" style="ellipse;whiteSpace=wrap;html=1;aspect=fixed;fillColor=#ffe6cc;strokeColor=#d79b00;" parent="1" vertex="1">
          <mxGeometry x="600" y="80" width="40" height="40" as="geometry" />
        </mxCell>
        <mxCell id="vNrutqDuaZT0YzVRxxDl-2" value="" style="ellipse;whiteSpace=wrap;html=1;aspect=fixed;fillColor=#dae8fc;strokeColor=#6c8ebf;" parent="1" vertex="1">
          <mxGeometry x="480" y="80" width="40" height="40" as="geometry" />
        </mxCell>
        <mxCell id="vNrutqDuaZT0YzVRxxDl-3" value="" style="ellipse;whiteSpace=wrap;html=1;aspect=fixed;fillColor=#d5e8d4;strokeColor=#82b366;" parent="1" vertex="1">
          <mxGeometry x="360" y="80" width="40" height="40" as="geometry" />
        </mxCell>
        <mxCell id="vNrutqDuaZT0YzVRxxDl-4" value="DEV" style="text;html=1;strokeColor=none;fillColor=none;align=center;verticalAlign=middle;whiteSpace=wrap;rounded=0;" parent="1" vertex="1">
          <mxGeometry x="360" y="50" width="40" height="20" as="geometry" />
        </mxCell>
        <mxCell id="vNrutqDuaZT0YzVRxxDl-5" value="STG" style="text;html=1;strokeColor=none;fillColor=none;align=center;verticalAlign=middle;whiteSpace=wrap;rounded=0;" parent="1" vertex="1">
          <mxGeometry x="480" y="50" width="40" height="20" as="geometry" />
        </mxCell>
        <mxCell id="vNrutqDuaZT0YzVRxxDl-6" value="Preprod&lt;br&gt;(Master)" style="text;html=1;strokeColor=none;fillColor=none;align=center;verticalAlign=middle;whiteSpace=wrap;rounded=0;" parent="1" vertex="1">
          <mxGeometry x="600" y="45" width="40" height="30" as="geometry" />
        </mxCell>
        <mxCell id="vNrutqDuaZT0YzVRxxDl-7" value="" style="ellipse;whiteSpace=wrap;html=1;aspect=fixed;fillColor=#e1d5e7;strokeColor=#9673a6;" parent="1" vertex="1">
          <mxGeometry x="720" y="80" width="40" height="40" as="geometry" />
        </mxCell>
        <mxCell id="vNrutqDuaZT0YzVRxxDl-9" value="PROD" style="text;html=1;strokeColor=none;fillColor=none;align=center;verticalAlign=middle;whiteSpace=wrap;rounded=0;" parent="1" vertex="1">
          <mxGeometry x="720" y="50" width="40" height="20" as="geometry" />
        </mxCell>
        <mxCell id="vNrutqDuaZT0YzVRxxDl-10" value="Ticket/ Feature/ Fix" style="text;html=1;strokeColor=#666666;fillColor=#f5f5f5;align=center;verticalAlign=middle;whiteSpace=wrap;rounded=0;fontColor=#333333;" parent="1" vertex="1">
          <mxGeometry x="40" y="50" width="240" height="20" as="geometry" />
        </mxCell>
        <mxCell id="EfbXVXWpIgYlTS-Qm1sO-1" value="SINIIT-001" style="text;html=1;strokeColor=#b85450;fillColor=#f8cecc;align=center;verticalAlign=middle;whiteSpace=wrap;rounded=0;" vertex="1" parent="1">
          <mxGeometry x="260" y="200" width="80" height="20" as="geometry" />
        </mxCell>
        <mxCell id="EfbXVXWpIgYlTS-Qm1sO-4" value="" style="endArrow=none;html=1;fillColor=#d5e8d4;strokeColor=#82b366;startArrow=none;" edge="1" parent="1" source="EfbXVXWpIgYlTS-Qm1sO-21">
          <mxGeometry width="50" height="50" relative="1" as="geometry">
            <mxPoint x="380" y="480" as="sourcePoint" />
            <mxPoint x="379.58" y="120" as="targetPoint" />
          </mxGeometry>
        </mxCell>
        <mxCell id="EfbXVXWpIgYlTS-Qm1sO-5" value="" style="endArrow=none;html=1;fillColor=#dae8fc;strokeColor=#6c8ebf;" edge="1" parent="1">
          <mxGeometry width="50" height="50" relative="1" as="geometry">
            <mxPoint x="500" y="960" as="sourcePoint" />
            <mxPoint x="499.5799999999999" y="120" as="targetPoint" />
          </mxGeometry>
        </mxCell>
        <mxCell id="EfbXVXWpIgYlTS-Qm1sO-6" value="" style="endArrow=none;html=1;fillColor=#ffe6cc;strokeColor=#d79b00;startArrow=none;" edge="1" parent="1" source="EfbXVXWpIgYlTS-Qm1sO-26">
          <mxGeometry width="50" height="50" relative="1" as="geometry">
            <mxPoint x="620" y="480" as="sourcePoint" />
            <mxPoint x="619.5799999999999" y="120" as="targetPoint" />
          </mxGeometry>
        </mxCell>
        <mxCell id="EfbXVXWpIgYlTS-Qm1sO-7" value="" style="endArrow=none;html=1;fillColor=#e1d5e7;strokeColor=#9673a6;" edge="1" parent="1" source="EfbXVXWpIgYlTS-Qm1sO-81">
          <mxGeometry width="50" height="50" relative="1" as="geometry">
            <mxPoint x="740" y="910" as="sourcePoint" />
            <mxPoint x="739.5799999999999" y="120" as="targetPoint" />
          </mxGeometry>
        </mxCell>
        <mxCell id="EfbXVXWpIgYlTS-Qm1sO-8" value="" style="endArrow=none;html=1;fillColor=#d5e8d4;strokeColor=#82b366;entryX=0;entryY=1;entryDx=0;entryDy=0;exitX=0.5;exitY=0;exitDx=0;exitDy=0;" edge="1" parent="1" source="EfbXVXWpIgYlTS-Qm1sO-1" target="vNrutqDuaZT0YzVRxxDl-3">
          <mxGeometry width="50" height="50" relative="1" as="geometry">
            <mxPoint x="330" y="200" as="sourcePoint" />
            <mxPoint x="380" y="150" as="targetPoint" />
          </mxGeometry>
        </mxCell>
        <mxCell id="EfbXVXWpIgYlTS-Qm1sO-9" value="" style="endArrow=none;html=1;fillColor=#f8cecc;strokeColor=#b85450;" edge="1" parent="1">
          <mxGeometry width="50" height="50" relative="1" as="geometry">
            <mxPoint x="300" y="260" as="sourcePoint" />
            <mxPoint x="300" y="220" as="targetPoint" />
          </mxGeometry>
        </mxCell>
        <mxCell id="EfbXVXWpIgYlTS-Qm1sO-10" value="SINIIT-001: Desc A" style="text;html=1;strokeColor=#b85450;fillColor=none;align=center;verticalAlign=middle;whiteSpace=wrap;rounded=0;" vertex="1" parent="1">
          <mxGeometry x="245" y="260" width="110" height="20" as="geometry" />
        </mxCell>
        <mxCell id="EfbXVXWpIgYlTS-Qm1sO-11" value="Branch" style="text;html=1;strokeColor=none;fillColor=none;align=center;verticalAlign=middle;whiteSpace=wrap;rounded=0;" vertex="1" parent="1">
          <mxGeometry x="120" y="200" width="40" height="20" as="geometry" />
        </mxCell>
        <mxCell id="EfbXVXWpIgYlTS-Qm1sO-12" value="Commit" style="text;html=1;strokeColor=none;fillColor=none;align=center;verticalAlign=middle;whiteSpace=wrap;rounded=0;" vertex="1" parent="1">
          <mxGeometry x="110" y="260" width="50" height="20" as="geometry" />
        </mxCell>
        <mxCell id="EfbXVXWpIgYlTS-Qm1sO-13" value="" style="endArrow=classic;html=1;exitX=1;exitY=0.5;exitDx=0;exitDy=0;entryX=0;entryY=0.5;entryDx=0;entryDy=0;" edge="1" parent="1" source="EfbXVXWpIgYlTS-Qm1sO-11" target="EfbXVXWpIgYlTS-Qm1sO-1">
          <mxGeometry width="50" height="50" relative="1" as="geometry">
            <mxPoint x="370" y="370" as="sourcePoint" />
            <mxPoint x="420" y="320" as="targetPoint" />
          </mxGeometry>
        </mxCell>
        <mxCell id="EfbXVXWpIgYlTS-Qm1sO-14" value="" style="endArrow=classic;html=1;exitX=1;exitY=0.5;exitDx=0;exitDy=0;entryX=0;entryY=0.5;entryDx=0;entryDy=0;" edge="1" parent="1" source="EfbXVXWpIgYlTS-Qm1sO-12" target="EfbXVXWpIgYlTS-Qm1sO-10">
          <mxGeometry width="50" height="50" relative="1" as="geometry">
            <mxPoint x="370" y="370" as="sourcePoint" />
            <mxPoint x="420" y="320" as="targetPoint" />
          </mxGeometry>
        </mxCell>
        <mxCell id="EfbXVXWpIgYlTS-Qm1sO-15" value="SINIIT-001: Desc B" style="text;html=1;strokeColor=#b85450;fillColor=none;align=center;verticalAlign=middle;whiteSpace=wrap;rounded=0;" vertex="1" parent="1">
          <mxGeometry x="245" y="310" width="110" height="20" as="geometry" />
        </mxCell>
        <mxCell id="EfbXVXWpIgYlTS-Qm1sO-16" value="SINIIT-001: Desc C" style="text;html=1;strokeColor=#b85450;fillColor=none;align=center;verticalAlign=middle;whiteSpace=wrap;rounded=0;" vertex="1" parent="1">
          <mxGeometry x="242.5" y="354" width="115" height="20" as="geometry" />
        </mxCell>
        <mxCell id="EfbXVXWpIgYlTS-Qm1sO-17" value="" style="endArrow=none;html=1;entryX=0.5;entryY=1;entryDx=0;entryDy=0;exitX=0.5;exitY=0;exitDx=0;exitDy=0;fillColor=#f8cecc;strokeColor=#b85450;" edge="1" parent="1" source="EfbXVXWpIgYlTS-Qm1sO-15" target="EfbXVXWpIgYlTS-Qm1sO-10">
          <mxGeometry width="50" height="50" relative="1" as="geometry">
            <mxPoint x="380" y="370" as="sourcePoint" />
            <mxPoint x="430" y="320" as="targetPoint" />
          </mxGeometry>
        </mxCell>
        <mxCell id="EfbXVXWpIgYlTS-Qm1sO-18" value="" style="endArrow=none;html=1;entryX=0.5;entryY=1;entryDx=0;entryDy=0;fillColor=#f8cecc;strokeColor=#b85450;" edge="1" parent="1" source="EfbXVXWpIgYlTS-Qm1sO-16" target="EfbXVXWpIgYlTS-Qm1sO-15">
          <mxGeometry width="50" height="50" relative="1" as="geometry">
            <mxPoint x="310.0000000000002" y="320" as="sourcePoint" />
            <mxPoint x="310.0000000000002" y="290" as="targetPoint" />
          </mxGeometry>
        </mxCell>
        <mxCell id="EfbXVXWpIgYlTS-Qm1sO-20" value="" style="endArrow=none;html=1;fillColor=#f8cecc;strokeColor=#b85450;exitX=0.5;exitY=1;exitDx=0;exitDy=0;entryX=0.5;entryY=0;entryDx=0;entryDy=0;" edge="1" parent="1" source="EfbXVXWpIgYlTS-Qm1sO-16" target="EfbXVXWpIgYlTS-Qm1sO-30">
          <mxGeometry width="50" height="50" relative="1" as="geometry">
            <mxPoint x="340" y="210.0000000000001" as="sourcePoint" />
            <mxPoint x="290" y="400" as="targetPoint" />
          </mxGeometry>
        </mxCell>
        <mxCell id="EfbXVXWpIgYlTS-Qm1sO-22" value="" style="endArrow=none;html=1;entryX=0;entryY=0.5;entryDx=0;entryDy=0;fillColor=#d5e8d4;strokeColor=#82b366;" edge="1" parent="1" target="EfbXVXWpIgYlTS-Qm1sO-23">
          <mxGeometry width="50" height="50" relative="1" as="geometry">
            <mxPoint x="400" y="419.66" as="sourcePoint" />
            <mxPoint x="470" y="419.66" as="targetPoint" />
          </mxGeometry>
        </mxCell>
        <mxCell id="EfbXVXWpIgYlTS-Qm1sO-23" value="" style="ellipse;whiteSpace=wrap;html=1;aspect=fixed;fillColor=#dae8fc;strokeColor=#6c8ebf;" vertex="1" parent="1">
          <mxGeometry x="480" y="400" width="40" height="40" as="geometry" />
        </mxCell>
        <mxCell id="EfbXVXWpIgYlTS-Qm1sO-21" value="" style="ellipse;whiteSpace=wrap;html=1;aspect=fixed;fillColor=#d5e8d4;strokeColor=#82b366;" vertex="1" parent="1">
          <mxGeometry x="360" y="400" width="40" height="40" as="geometry" />
        </mxCell>
        <mxCell id="EfbXVXWpIgYlTS-Qm1sO-24" value="" style="endArrow=none;html=1;fillColor=#d5e8d4;strokeColor=#82b366;exitX=1;exitY=0.5;exitDx=0;exitDy=0;entryX=0;entryY=0.5;entryDx=0;entryDy=0;" edge="1" parent="1" source="EfbXVXWpIgYlTS-Qm1sO-34" target="EfbXVXWpIgYlTS-Qm1sO-52">
          <mxGeometry width="50" height="50" relative="1" as="geometry">
            <mxPoint x="380" y="480" as="sourcePoint" />
            <mxPoint x="360" y="486" as="targetPoint" />
          </mxGeometry>
        </mxCell>
        <mxCell id="EfbXVXWpIgYlTS-Qm1sO-25" value="" style="endArrow=none;html=1;exitX=1;exitY=0.5;exitDx=0;exitDy=0;fillColor=#dae8fc;strokeColor=#6c8ebf;entryX=0;entryY=0.5;entryDx=0;entryDy=0;" edge="1" parent="1" source="EfbXVXWpIgYlTS-Qm1sO-23" target="EfbXVXWpIgYlTS-Qm1sO-26">
          <mxGeometry width="50" height="50" relative="1" as="geometry">
            <mxPoint x="350" y="430" as="sourcePoint" />
            <mxPoint x="620" y="420" as="targetPoint" />
          </mxGeometry>
        </mxCell>
        <mxCell id="EfbXVXWpIgYlTS-Qm1sO-26" value="" style="ellipse;whiteSpace=wrap;html=1;aspect=fixed;fillColor=#ffe6cc;strokeColor=#d79b00;" vertex="1" parent="1">
          <mxGeometry x="600" y="400" width="40" height="40" as="geometry" />
        </mxCell>
        <mxCell id="EfbXVXWpIgYlTS-Qm1sO-27" value="" style="endArrow=none;html=1;fillColor=#ffe6cc;strokeColor=#d79b00;exitX=0.5;exitY=0;exitDx=0;exitDy=0;" edge="1" parent="1" source="EfbXVXWpIgYlTS-Qm1sO-58" target="EfbXVXWpIgYlTS-Qm1sO-26">
          <mxGeometry width="50" height="50" relative="1" as="geometry">
            <mxPoint x="620" y="480" as="sourcePoint" />
            <mxPoint x="619.5799999999997" y="120.00000000000011" as="targetPoint" />
          </mxGeometry>
        </mxCell>
        <mxCell id="EfbXVXWpIgYlTS-Qm1sO-28" value="" style="endArrow=none;html=1;entryX=0;entryY=0.5;entryDx=0;entryDy=0;fillColor=#ffe6cc;strokeColor=#d79b00;" edge="1" parent="1" target="EfbXVXWpIgYlTS-Qm1sO-29">
          <mxGeometry width="50" height="50" relative="1" as="geometry">
            <mxPoint x="640" y="420" as="sourcePoint" />
            <mxPoint x="510" y="350" as="targetPoint" />
          </mxGeometry>
        </mxCell>
        <mxCell id="EfbXVXWpIgYlTS-Qm1sO-29" value="" style="ellipse;whiteSpace=wrap;html=1;aspect=fixed;fillColor=#e1d5e7;strokeColor=#9673a6;" vertex="1" parent="1">
          <mxGeometry x="720" y="400" width="40" height="40" as="geometry" />
        </mxCell>
        <mxCell id="EfbXVXWpIgYlTS-Qm1sO-30" value="" style="ellipse;whiteSpace=wrap;html=1;aspect=fixed;fillColor=#f8cecc;strokeColor=#b85450;" vertex="1" parent="1">
          <mxGeometry x="280" y="400" width="40" height="40" as="geometry" />
        </mxCell>
        <mxCell id="EfbXVXWpIgYlTS-Qm1sO-31" value="" style="endArrow=none;html=1;entryX=0;entryY=0.5;entryDx=0;entryDy=0;fillColor=#f8cecc;strokeColor=#b85450;exitX=1;exitY=0.5;exitDx=0;exitDy=0;" edge="1" parent="1" source="EfbXVXWpIgYlTS-Qm1sO-30" target="EfbXVXWpIgYlTS-Qm1sO-21">
          <mxGeometry width="50" height="50" relative="1" as="geometry">
            <mxPoint x="410" y="429.6600000000001" as="sourcePoint" />
            <mxPoint x="490" y="430" as="targetPoint" />
          </mxGeometry>
        </mxCell>
        <mxCell id="EfbXVXWpIgYlTS-Qm1sO-33" value="" style="edgeStyle=orthogonalEdgeStyle;rounded=0;orthogonalLoop=1;jettySize=auto;html=1;" edge="1" parent="1" source="EfbXVXWpIgYlTS-Qm1sO-32" target="EfbXVXWpIgYlTS-Qm1sO-30">
          <mxGeometry relative="1" as="geometry" />
        </mxCell>
        <mxCell id="EfbXVXWpIgYlTS-Qm1sO-32" value="Squash and merge" style="text;html=1;strokeColor=none;fillColor=none;align=center;verticalAlign=middle;whiteSpace=wrap;rounded=0;" vertex="1" parent="1">
          <mxGeometry x="40" y="410" width="120" height="20" as="geometry" />
        </mxCell>
        <mxCell id="EfbXVXWpIgYlTS-Qm1sO-34" value="" style="ellipse;whiteSpace=wrap;html=1;aspect=fixed;fillColor=#f8cecc;strokeColor=#b85450;" vertex="1" parent="1">
          <mxGeometry x="280" y="480" width="40" height="40" as="geometry" />
        </mxCell>
        <mxCell id="EfbXVXWpIgYlTS-Qm1sO-36" value="Bug in DEV ENV" style="text;html=1;strokeColor=none;fillColor=none;align=center;verticalAlign=middle;whiteSpace=wrap;rounded=0;" vertex="1" parent="1">
          <mxGeometry x="50" y="490" width="110" height="20" as="geometry" />
        </mxCell>
        <mxCell id="EfbXVXWpIgYlTS-Qm1sO-41" value="" style="endArrow=classic;html=1;" edge="1" parent="1">
          <mxGeometry width="50" height="50" relative="1" as="geometry">
            <mxPoint x="330" y="460" as="sourcePoint" />
            <mxPoint x="340" y="420" as="targetPoint" />
          </mxGeometry>
        </mxCell>
        <mxCell id="EfbXVXWpIgYlTS-Qm1sO-42" value="" style="endArrow=none;html=1;entryX=1;entryY=0.5;entryDx=0;entryDy=0;" edge="1" parent="1" target="EfbXVXWpIgYlTS-Qm1sO-44">
          <mxGeometry width="50" height="50" relative="1" as="geometry">
            <mxPoint x="330" y="460" as="sourcePoint" />
            <mxPoint x="160" y="470" as="targetPoint" />
          </mxGeometry>
        </mxCell>
        <mxCell id="EfbXVXWpIgYlTS-Qm1sO-44" value="PR/ Code review" style="text;html=1;strokeColor=none;fillColor=none;align=center;verticalAlign=middle;whiteSpace=wrap;rounded=0;" vertex="1" parent="1">
          <mxGeometry x="50" y="450" width="110" height="20" as="geometry" />
        </mxCell>
        <mxCell id="EfbXVXWpIgYlTS-Qm1sO-48" value="" style="endArrow=none;html=1;fillColor=#f8cecc;strokeColor=#b85450;entryX=0.5;entryY=0;entryDx=0;entryDy=0;" edge="1" parent="1" source="EfbXVXWpIgYlTS-Qm1sO-30" target="EfbXVXWpIgYlTS-Qm1sO-34">
          <mxGeometry width="50" height="50" relative="1" as="geometry">
            <mxPoint x="310" y="384" as="sourcePoint" />
            <mxPoint x="310" y="410" as="targetPoint" />
          </mxGeometry>
        </mxCell>
        <mxCell id="EfbXVXWpIgYlTS-Qm1sO-49" value="Merge from DEV to working branch" style="text;html=1;strokeColor=none;fillColor=none;align=center;verticalAlign=middle;whiteSpace=wrap;rounded=0;" vertex="1" parent="1">
          <mxGeometry x="40" y="530" width="120" height="40" as="geometry" />
        </mxCell>
        <mxCell id="EfbXVXWpIgYlTS-Qm1sO-50" value="" style="endArrow=none;html=1;fillColor=#d5e8d4;strokeColor=#82b366;entryX=0.5;entryY=1;entryDx=0;entryDy=0;" edge="1" parent="1" source="EfbXVXWpIgYlTS-Qm1sO-86" target="EfbXVXWpIgYlTS-Qm1sO-21">
          <mxGeometry width="50" height="50" relative="1" as="geometry">
            <mxPoint x="380" y="610" as="sourcePoint" />
            <mxPoint x="375.85786437626916" y="444.14213562373084" as="targetPoint" />
          </mxGeometry>
        </mxCell>
        <mxCell id="EfbXVXWpIgYlTS-Qm1sO-51" value="" style="endArrow=none;html=1;exitX=0.5;exitY=1;exitDx=0;exitDy=0;fillColor=#f8cecc;strokeColor=#b85450;" edge="1" parent="1" source="EfbXVXWpIgYlTS-Qm1sO-34">
          <mxGeometry width="50" height="50" relative="1" as="geometry">
            <mxPoint x="430" y="410" as="sourcePoint" />
            <mxPoint x="300" y="570" as="targetPoint" />
          </mxGeometry>
        </mxCell>
        <mxCell id="EfbXVXWpIgYlTS-Qm1sO-52" value="" style="ellipse;whiteSpace=wrap;html=1;aspect=fixed;fillColor=#d5e8d4;strokeColor=#82b366;" vertex="1" parent="1">
          <mxGeometry x="360" y="480" width="40" height="40" as="geometry" />
        </mxCell>
        <mxCell id="EfbXVXWpIgYlTS-Qm1sO-53" value="SINIIT-001: Desc D" style="text;html=1;strokeColor=#b85450;fillColor=none;align=center;verticalAlign=middle;whiteSpace=wrap;rounded=0;" vertex="1" parent="1">
          <mxGeometry x="245" y="570" width="110" height="20" as="geometry" />
        </mxCell>
        <mxCell id="EfbXVXWpIgYlTS-Qm1sO-54" value="" style="ellipse;whiteSpace=wrap;html=1;aspect=fixed;fillColor=#f8cecc;strokeColor=#b85450;" vertex="1" parent="1">
          <mxGeometry x="280" y="620" width="40" height="40" as="geometry" />
        </mxCell>
        <mxCell id="EfbXVXWpIgYlTS-Qm1sO-55" value="" style="endArrow=none;html=1;exitX=0.5;exitY=1;exitDx=0;exitDy=0;fillColor=#f8cecc;strokeColor=#b85450;entryX=0.5;entryY=0;entryDx=0;entryDy=0;" edge="1" parent="1" source="EfbXVXWpIgYlTS-Qm1sO-53" target="EfbXVXWpIgYlTS-Qm1sO-54">
          <mxGeometry width="50" height="50" relative="1" as="geometry">
            <mxPoint x="310" y="530" as="sourcePoint" />
            <mxPoint x="310" y="580" as="targetPoint" />
          </mxGeometry>
        </mxCell>
        <mxCell id="EfbXVXWpIgYlTS-Qm1sO-56" value="" style="ellipse;whiteSpace=wrap;html=1;aspect=fixed;fillColor=#d5e8d4;strokeColor=#82b366;" vertex="1" parent="1">
          <mxGeometry x="360" y="620" width="40" height="40" as="geometry" />
        </mxCell>
        <mxCell id="EfbXVXWpIgYlTS-Qm1sO-57" value="" style="ellipse;whiteSpace=wrap;html=1;aspect=fixed;fillColor=#dae8fc;strokeColor=#6c8ebf;" vertex="1" parent="1">
          <mxGeometry x="480" y="620" width="40" height="40" as="geometry" />
        </mxCell>
        <mxCell id="EfbXVXWpIgYlTS-Qm1sO-58" value="" style="ellipse;whiteSpace=wrap;html=1;aspect=fixed;fillColor=#ffe6cc;strokeColor=#d79b00;" vertex="1" parent="1">
          <mxGeometry x="600" y="620" width="40" height="40" as="geometry" />
        </mxCell>
        <mxCell id="EfbXVXWpIgYlTS-Qm1sO-59" value="" style="ellipse;whiteSpace=wrap;html=1;aspect=fixed;fillColor=#e1d5e7;strokeColor=#9673a6;" vertex="1" parent="1">
          <mxGeometry x="720" y="620" width="40" height="40" as="geometry" />
        </mxCell>
        <mxCell id="EfbXVXWpIgYlTS-Qm1sO-60" value="" style="endArrow=none;html=1;entryX=0;entryY=0.5;entryDx=0;entryDy=0;fillColor=#d5e8d4;strokeColor=#82b366;" edge="1" parent="1">
          <mxGeometry width="50" height="50" relative="1" as="geometry">
            <mxPoint x="400" y="639.4900000000001" as="sourcePoint" />
            <mxPoint x="480" y="639.83" as="targetPoint" />
          </mxGeometry>
        </mxCell>
        <mxCell id="EfbXVXWpIgYlTS-Qm1sO-61" value="" style="endArrow=none;html=1;exitX=1;exitY=0.5;exitDx=0;exitDy=0;fillColor=#dae8fc;strokeColor=#6c8ebf;entryX=0;entryY=0.5;entryDx=0;entryDy=0;" edge="1" parent="1">
          <mxGeometry width="50" height="50" relative="1" as="geometry">
            <mxPoint x="520" y="639.83" as="sourcePoint" />
            <mxPoint x="600" y="639.83" as="targetPoint" />
          </mxGeometry>
        </mxCell>
        <mxCell id="EfbXVXWpIgYlTS-Qm1sO-62" value="" style="endArrow=none;html=1;entryX=0;entryY=0.5;entryDx=0;entryDy=0;fillColor=#ffe6cc;strokeColor=#d79b00;" edge="1" parent="1">
          <mxGeometry width="50" height="50" relative="1" as="geometry">
            <mxPoint x="640" y="639.83" as="sourcePoint" />
            <mxPoint x="720" y="639.83" as="targetPoint" />
          </mxGeometry>
        </mxCell>
        <mxCell id="EfbXVXWpIgYlTS-Qm1sO-63" value="" style="endArrow=none;html=1;exitX=1;exitY=0.5;exitDx=0;exitDy=0;fillColor=#f8cecc;strokeColor=#b85450;entryX=0;entryY=0.5;entryDx=0;entryDy=0;" edge="1" parent="1" source="EfbXVXWpIgYlTS-Qm1sO-54" target="EfbXVXWpIgYlTS-Qm1sO-56">
          <mxGeometry width="50" height="50" relative="1" as="geometry">
            <mxPoint x="310" y="600" as="sourcePoint" />
            <mxPoint x="310" y="630" as="targetPoint" />
          </mxGeometry>
        </mxCell>
        <mxCell id="EfbXVXWpIgYlTS-Qm1sO-64" value="" style="endArrow=none;html=1;entryX=0;entryY=1;entryDx=0;entryDy=0;fillColor=#fff2cc;strokeColor=#d6b656;exitX=1;exitY=0;exitDx=0;exitDy=0;" edge="1" parent="1" source="EfbXVXWpIgYlTS-Qm1sO-65" target="EfbXVXWpIgYlTS-Qm1sO-58">
          <mxGeometry width="50" height="50" relative="1" as="geometry">
            <mxPoint x="560" y="700" as="sourcePoint" />
            <mxPoint x="480" y="680" as="targetPoint" />
          </mxGeometry>
        </mxCell>
        <mxCell id="EfbXVXWpIgYlTS-Qm1sO-65" value="" style="ellipse;whiteSpace=wrap;html=1;aspect=fixed;fillColor=#fff2cc;strokeColor=#d6b656;" vertex="1" parent="1">
          <mxGeometry x="525" y="700" width="40" height="40" as="geometry" />
        </mxCell>
        <mxCell id="EfbXVXWpIgYlTS-Qm1sO-66" value="Hotfix" style="text;html=1;strokeColor=none;fillColor=none;align=center;verticalAlign=middle;whiteSpace=wrap;rounded=0;" vertex="1" parent="1">
          <mxGeometry x="110" y="710" width="50" height="20" as="geometry" />
        </mxCell>
        <mxCell id="EfbXVXWpIgYlTS-Qm1sO-67" value="SINIIT-010: Fix A" style="text;html=1;strokeColor=#d6b656;fillColor=#fff2cc;align=center;verticalAlign=middle;whiteSpace=wrap;rounded=0;" vertex="1" parent="1">
          <mxGeometry x="490" y="760" width="110" height="20" as="geometry" />
        </mxCell>
        <mxCell id="EfbXVXWpIgYlTS-Qm1sO-68" value="SINIIT-010: Fix B" style="text;html=1;strokeColor=#d6b656;fillColor=#fff2cc;align=center;verticalAlign=middle;whiteSpace=wrap;rounded=0;" vertex="1" parent="1">
          <mxGeometry x="490" y="810" width="110" height="20" as="geometry" />
        </mxCell>
        <mxCell id="EfbXVXWpIgYlTS-Qm1sO-69" value="" style="endArrow=none;html=1;entryX=0.5;entryY=1;entryDx=0;entryDy=0;fillColor=#fff2cc;strokeColor=#d6b656;" edge="1" parent="1" source="EfbXVXWpIgYlTS-Qm1sO-67" target="EfbXVXWpIgYlTS-Qm1sO-65">
          <mxGeometry width="50" height="50" relative="1" as="geometry">
            <mxPoint x="415" y="650" as="sourcePoint" />
            <mxPoint x="465" y="600" as="targetPoint" />
          </mxGeometry>
        </mxCell>
        <mxCell id="EfbXVXWpIgYlTS-Qm1sO-70" value="" style="endArrow=none;html=1;entryX=0.5;entryY=1;entryDx=0;entryDy=0;exitX=0.5;exitY=0;exitDx=0;exitDy=0;fillColor=#fff2cc;strokeColor=#d6b656;" edge="1" parent="1" source="EfbXVXWpIgYlTS-Qm1sO-68" target="EfbXVXWpIgYlTS-Qm1sO-67">
          <mxGeometry width="50" height="50" relative="1" as="geometry">
            <mxPoint x="555" y="770" as="sourcePoint" />
            <mxPoint x="555" y="750" as="targetPoint" />
          </mxGeometry>
        </mxCell>
        <mxCell id="EfbXVXWpIgYlTS-Qm1sO-71" value="" style="ellipse;whiteSpace=wrap;html=1;aspect=fixed;fillColor=#fff2cc;strokeColor=#d6b656;" vertex="1" parent="1">
          <mxGeometry x="525" y="860" width="40" height="40" as="geometry" />
        </mxCell>
        <mxCell id="EfbXVXWpIgYlTS-Qm1sO-72" value="" style="endArrow=none;html=1;entryX=0.5;entryY=1;entryDx=0;entryDy=0;exitX=0.5;exitY=0;exitDx=0;exitDy=0;fillColor=#fff2cc;strokeColor=#d6b656;" edge="1" parent="1" source="EfbXVXWpIgYlTS-Qm1sO-71" target="EfbXVXWpIgYlTS-Qm1sO-68">
          <mxGeometry width="50" height="50" relative="1" as="geometry">
            <mxPoint x="555" y="820" as="sourcePoint" />
            <mxPoint x="555" y="790" as="targetPoint" />
          </mxGeometry>
        </mxCell>
        <mxCell id="EfbXVXWpIgYlTS-Qm1sO-73" value="Squash and merge" style="text;html=1;strokeColor=none;fillColor=none;align=center;verticalAlign=middle;whiteSpace=wrap;rounded=0;" vertex="1" parent="1">
          <mxGeometry x="40" y="870" width="120" height="20" as="geometry" />
        </mxCell>
        <mxCell id="EfbXVXWpIgYlTS-Qm1sO-76" value="" style="edgeStyle=orthogonalEdgeStyle;rounded=0;orthogonalLoop=1;jettySize=auto;html=1;entryX=0;entryY=0.5;entryDx=0;entryDy=0;" edge="1" parent="1" target="EfbXVXWpIgYlTS-Qm1sO-65">
          <mxGeometry relative="1" as="geometry">
            <mxPoint x="160" y="720" as="sourcePoint" />
            <mxPoint x="305" y="719.6600000000001" as="targetPoint" />
          </mxGeometry>
        </mxCell>
        <mxCell id="EfbXVXWpIgYlTS-Qm1sO-77" value="" style="edgeStyle=orthogonalEdgeStyle;rounded=0;orthogonalLoop=1;jettySize=auto;html=1;entryX=0;entryY=0.5;entryDx=0;entryDy=0;exitX=1;exitY=0.5;exitDx=0;exitDy=0;" edge="1" parent="1" source="EfbXVXWpIgYlTS-Qm1sO-73">
          <mxGeometry relative="1" as="geometry">
            <mxPoint x="190" y="880" as="sourcePoint" />
            <mxPoint x="525" y="879.66" as="targetPoint" />
            <Array as="points" />
          </mxGeometry>
        </mxCell>
        <mxCell id="EfbXVXWpIgYlTS-Qm1sO-78" value="" style="endArrow=none;html=1;entryX=0.5;entryY=1;entryDx=0;entryDy=0;exitX=0.5;exitY=0;exitDx=0;exitDy=0;fillColor=#ffe6cc;strokeColor=#d79b00;" edge="1" parent="1" source="EfbXVXWpIgYlTS-Qm1sO-79" target="EfbXVXWpIgYlTS-Qm1sO-58">
          <mxGeometry width="50" height="50" relative="1" as="geometry">
            <mxPoint x="620" y="860" as="sourcePoint" />
            <mxPoint x="480" y="690" as="targetPoint" />
          </mxGeometry>
        </mxCell>
        <mxCell id="EfbXVXWpIgYlTS-Qm1sO-79" value="" style="ellipse;whiteSpace=wrap;html=1;aspect=fixed;fillColor=#ffe6cc;strokeColor=#d79b00;" vertex="1" parent="1">
          <mxGeometry x="600" y="860" width="40" height="40" as="geometry" />
        </mxCell>
        <mxCell id="EfbXVXWpIgYlTS-Qm1sO-80" value="" style="endArrow=none;html=1;entryX=1;entryY=0.5;entryDx=0;entryDy=0;exitX=0;exitY=0.5;exitDx=0;exitDy=0;fillColor=#fff2cc;strokeColor=#d6b656;" edge="1" parent="1" source="EfbXVXWpIgYlTS-Qm1sO-79" target="EfbXVXWpIgYlTS-Qm1sO-71">
          <mxGeometry width="50" height="50" relative="1" as="geometry">
            <mxPoint x="555" y="820" as="sourcePoint" />
            <mxPoint x="555" y="790" as="targetPoint" />
          </mxGeometry>
        </mxCell>
        <mxCell id="EfbXVXWpIgYlTS-Qm1sO-81" value="" style="ellipse;whiteSpace=wrap;html=1;aspect=fixed;fillColor=#e1d5e7;strokeColor=#9673a6;" vertex="1" parent="1">
          <mxGeometry x="720" y="860" width="40" height="40" as="geometry" />
        </mxCell>
        <mxCell id="EfbXVXWpIgYlTS-Qm1sO-83" value="" style="endArrow=none;html=1;entryX=0;entryY=0.5;entryDx=0;entryDy=0;exitX=1;exitY=0.5;exitDx=0;exitDy=0;fillColor=#ffe6cc;strokeColor=#d79b00;" edge="1" parent="1" source="EfbXVXWpIgYlTS-Qm1sO-79" target="EfbXVXWpIgYlTS-Qm1sO-81">
          <mxGeometry width="50" height="50" relative="1" as="geometry">
            <mxPoint x="430" y="760" as="sourcePoint" />
            <mxPoint x="480" y="710" as="targetPoint" />
          </mxGeometry>
        </mxCell>
        <mxCell id="EfbXVXWpIgYlTS-Qm1sO-84" value="" style="ellipse;whiteSpace=wrap;html=1;aspect=fixed;fillColor=#dae8fc;strokeColor=#6c8ebf;" vertex="1" parent="1">
          <mxGeometry x="480" y="960" width="40" height="40" as="geometry" />
        </mxCell>
        <mxCell id="EfbXVXWpIgYlTS-Qm1sO-86" value="" style="ellipse;whiteSpace=wrap;html=1;aspect=fixed;fillColor=#d5e8d4;strokeColor=#82b366;" vertex="1" parent="1">
          <mxGeometry x="360" y="960" width="40" height="40" as="geometry" />
        </mxCell>
        <mxCell id="EfbXVXWpIgYlTS-Qm1sO-89" value="" style="endArrow=classic;html=1;entryX=1;entryY=0.5;entryDx=0;entryDy=0;exitX=0.5;exitY=1;exitDx=0;exitDy=0;fillColor=#e1d5e7;strokeColor=#9673a6;" edge="1" parent="1" source="EfbXVXWpIgYlTS-Qm1sO-81" target="EfbXVXWpIgYlTS-Qm1sO-84">
          <mxGeometry width="50" height="50" relative="1" as="geometry">
            <mxPoint x="430" y="930" as="sourcePoint" />
            <mxPoint x="480" y="880" as="targetPoint" />
          </mxGeometry>
        </mxCell>
        <mxCell id="EfbXVXWpIgYlTS-Qm1sO-90" value="" style="endArrow=classic;html=1;entryX=1;entryY=0.5;entryDx=0;entryDy=0;exitX=0;exitY=0.5;exitDx=0;exitDy=0;fillColor=#dae8fc;strokeColor=#6c8ebf;" edge="1" parent="1" source="EfbXVXWpIgYlTS-Qm1sO-84" target="EfbXVXWpIgYlTS-Qm1sO-86">
          <mxGeometry width="50" height="50" relative="1" as="geometry">
            <mxPoint x="430" y="930" as="sourcePoint" />
            <mxPoint x="480" y="880" as="targetPoint" />
          </mxGeometry>
        </mxCell>
        <mxCell id="EfbXVXWpIgYlTS-Qm1sO-91" value="merge" style="text;html=1;strokeColor=none;fillColor=none;align=center;verticalAlign=middle;whiteSpace=wrap;rounded=0;rotation=-20;" vertex="1" parent="1">
          <mxGeometry x="590" y="920" width="60" height="20" as="geometry" />
        </mxCell>
        <mxCell id="EfbXVXWpIgYlTS-Qm1sO-92" value="merge" style="text;html=1;strokeColor=none;fillColor=none;align=center;verticalAlign=middle;whiteSpace=wrap;rounded=0;" vertex="1" parent="1">
          <mxGeometry x="410" y="960" width="60" height="20" as="geometry" />
        </mxCell>
        <mxCell id="EfbXVXWpIgYlTS-Qm1sO-93" value="merge" style="text;html=1;strokeColor=none;fillColor=none;align=center;verticalAlign=middle;whiteSpace=wrap;rounded=0;" vertex="1" parent="1">
          <mxGeometry x="310" y="610" width="60" height="20" as="geometry" />
        </mxCell>
        <mxCell id="EfbXVXWpIgYlTS-Qm1sO-94" value="merge" style="text;html=1;strokeColor=none;fillColor=none;align=center;verticalAlign=middle;whiteSpace=wrap;rounded=0;" vertex="1" parent="1">
          <mxGeometry x="410" y="610" width="60" height="20" as="geometry" />
        </mxCell>
        <mxCell id="EfbXVXWpIgYlTS-Qm1sO-95" value="merge" style="text;html=1;strokeColor=none;fillColor=none;align=center;verticalAlign=middle;whiteSpace=wrap;rounded=0;" vertex="1" parent="1">
          <mxGeometry x="525" y="610" width="60" height="20" as="geometry" />
        </mxCell>
        <mxCell id="EfbXVXWpIgYlTS-Qm1sO-96" value="merge" style="text;html=1;strokeColor=none;fillColor=none;align=center;verticalAlign=middle;whiteSpace=wrap;rounded=0;" vertex="1" parent="1">
          <mxGeometry x="650" y="610" width="60" height="20" as="geometry" />
        </mxCell>
        <mxCell id="EfbXVXWpIgYlTS-Qm1sO-97" value="merge" style="text;html=1;strokeColor=none;fillColor=none;align=center;verticalAlign=middle;whiteSpace=wrap;rounded=0;" vertex="1" parent="1">
          <mxGeometry x="410" y="390" width="60" height="20" as="geometry" />
        </mxCell>
        <mxCell id="EfbXVXWpIgYlTS-Qm1sO-98" value="merge" style="text;html=1;strokeColor=none;fillColor=none;align=center;verticalAlign=middle;whiteSpace=wrap;rounded=0;" vertex="1" parent="1">
          <mxGeometry x="525" y="390" width="60" height="20" as="geometry" />
        </mxCell>
        <mxCell id="EfbXVXWpIgYlTS-Qm1sO-99" value="merge" style="text;html=1;strokeColor=none;fillColor=none;align=center;verticalAlign=middle;whiteSpace=wrap;rounded=0;" vertex="1" parent="1">
          <mxGeometry x="650" y="390" width="60" height="20" as="geometry" />
        </mxCell>
        <mxCell id="EfbXVXWpIgYlTS-Qm1sO-100" value="merge" style="text;html=1;strokeColor=none;fillColor=none;align=center;verticalAlign=middle;whiteSpace=wrap;rounded=0;" vertex="1" parent="1">
          <mxGeometry x="660" y="860" width="60" height="20" as="geometry" />
        </mxCell>
        <mxCell id="EfbXVXWpIgYlTS-Qm1sO-101" value="merge" style="text;html=1;strokeColor=none;fillColor=none;align=center;verticalAlign=middle;whiteSpace=wrap;rounded=0;" vertex="1" parent="1">
          <mxGeometry x="553" y="860" width="60" height="20" as="geometry" />
        </mxCell>
        <mxCell id="EfbXVXWpIgYlTS-Qm1sO-103" value="" style="endArrow=classic;html=1;" edge="1" parent="1">
          <mxGeometry width="50" height="50" relative="1" as="geometry">
            <mxPoint x="330" y="550" as="sourcePoint" />
            <mxPoint x="340" y="500" as="targetPoint" />
          </mxGeometry>
        </mxCell>
        <mxCell id="EfbXVXWpIgYlTS-Qm1sO-104" value="" style="endArrow=none;html=1;exitX=1;exitY=0.5;exitDx=0;exitDy=0;" edge="1" parent="1" source="EfbXVXWpIgYlTS-Qm1sO-49">
          <mxGeometry width="50" height="50" relative="1" as="geometry">
            <mxPoint x="420" y="690" as="sourcePoint" />
            <mxPoint x="330" y="550" as="targetPoint" />
          </mxGeometry>
        </mxCell>
        <mxCell id="EfbXVXWpIgYlTS-Qm1sO-106" value="" style="endArrow=classic;html=1;entryX=0;entryY=0.5;entryDx=0;entryDy=0;exitX=1;exitY=0.5;exitDx=0;exitDy=0;" edge="1" parent="1" source="EfbXVXWpIgYlTS-Qm1sO-36" target="EfbXVXWpIgYlTS-Qm1sO-34">
          <mxGeometry width="50" height="50" relative="1" as="geometry">
            <mxPoint x="420" y="690" as="sourcePoint" />
            <mxPoint x="470" y="640" as="targetPoint" />
          </mxGeometry>
        </mxCell>
      </root>
    </mxGraphModel>
  </diagram>
</mxfile>
